<svg width="192" height="192" viewBox="0 0 192 192" xmlns="http://www.w3.org/2000/svg">
  <defs>
    <linearGradient id="bgGradient" x1="0%" y1="0%" x2="100%" y2="100%">
      <stop offset="0%" style="stop-color:#2563eb;stop-opacity:1" />
      <stop offset="100%" style="stop-color:#7c3aed;stop-opacity:1" />
    </linearGradient>
  </defs>
  
  <!-- Background -->
  <rect width="192" height="192" rx="40" fill="url(#bgGradient)"/>
  
  <!-- Cloud icon -->
  <g transform="translate(96, 96)" fill="white">
    <path d="M-40,-10 
             C-40,-25 -28,-38 -12,-38 
             C-5,-38 2,-35 7,-30 
             C12,-40 25,-45 38,-40 
             C50,-35 58,-22 55,-8 
             C68,-5 75,8 72,22 
             C69,35 55,42 42,38 
             C38,48 28,55 16,55 
             L-24,55 
             C-35,55 -45,46 -45,35 
             C-45,30 -43,25 -40,22 
             C-48,18 -52,8 -48,-2 
             C-45,-8 -38,-12 -32,-10 
             C-36,-5 -38,2 -35,8 
             C-32,14 -25,17 -18,15 
             C-12,13 -8,7 -10,1 
             C-12,-5 -18,-8 -24,-7 
             C-30,-6 -35,-2 -37,3 
             C-40,0 -42,-4 -40,-10 Z" 
          opacity="0.95"/>
  </g>
</svg>
